<?xml version="1.0" encoding="UTF-8" standalone="no"?>
<!DOCTYPE svg PUBLIC "-//W3C//DTD SVG 1.0//EN" "http://www.w3.org/TR/2001/PR-SVG-20010719/DTD/svg10.dtd">
<svg width="15cm" height="9cm" viewBox="557 85 292 165" xmlns="http://www.w3.org/2000/svg" xmlns:xlink="http://www.w3.org/1999/xlink">
  <defs/>
  <g id="Background">
    <rect style="fill: #ffffff; fill-opacity: 1; stroke-opacity: 1; stroke-width: 2; stroke: #000000" x="598.7" y="86.1" width="23" height="22" rx="0" ry="0"/>
    <rect style="fill: #ffffff; fill-opacity: 1; stroke-opacity: 1; stroke-width: 2; stroke: #000000" x="598.7" y="110.1" width="23" height="22" rx="0" ry="0"/>
    <rect style="fill: #ffffff; fill-opacity: 1; stroke-opacity: 1; stroke-width: 2; stroke: #000000" x="598.7" y="134.1" width="23" height="22" rx="0" ry="0"/>
    <rect style="fill: #ffffff; fill-opacity: 1; stroke-opacity: 1; stroke-width: 2; stroke: #000000" x="598.7" y="158.1" width="23" height="22" rx="0" ry="0"/>
    <rect style="fill: #ffffff; fill-opacity: 1; stroke-opacity: 1; stroke-width: 2; stroke: #000000" x="598.7" y="182.1" width="23" height="22" rx="0" ry="0"/>
    <rect style="fill: #ffffff; fill-opacity: 1; stroke-opacity: 1; stroke-width: 2; stroke: #000000" x="598.7" y="206.1" width="23" height="22" rx="0" ry="0"/>
    <rect style="fill: #ffffff; fill-opacity: 1; stroke-opacity: 1; stroke-width: 2; stroke: #000000" x="641.2" y="86.1" width="23" height="22" rx="0" ry="0"/>
    <rect style="fill: #ffffff; fill-opacity: 1; stroke-opacity: 1; stroke-width: 2; stroke: #000000" x="641.2" y="110.1" width="23" height="22" rx="0" ry="0"/>
    <rect style="fill: #ffffff; fill-opacity: 1; stroke-opacity: 1; stroke-width: 2; stroke: #000000" x="641.2" y="134.1" width="23" height="22" rx="0" ry="0"/>
    <rect style="fill: #ffffff; fill-opacity: 1; stroke-opacity: 1; stroke-width: 2; stroke: #000000" x="641.2" y="158.1" width="23" height="22" rx="0" ry="0"/>
    <rect style="fill: #ffffff; fill-opacity: 1; stroke-opacity: 1; stroke-width: 2; stroke: #000000" x="641.2" y="182.1" width="23" height="22" rx="0" ry="0"/>
    <rect style="fill: #ffffff; fill-opacity: 1; stroke-opacity: 1; stroke-width: 2; stroke: #000000" x="641.2" y="206.1" width="23" height="22" rx="0" ry="0"/>
    <rect style="fill: #ffffff; fill-opacity: 1; stroke-opacity: 1; stroke-width: 2; stroke: #000000" x="558.2" y="86.1" width="23" height="22" rx="0" ry="0"/>
    <rect style="fill: #ffffff; fill-opacity: 1; stroke-opacity: 1; stroke-width: 2; stroke: #000000" x="558.2" y="110.1" width="23" height="22" rx="0" ry="0"/>
    <rect style="fill: #ffffff; fill-opacity: 1; stroke-opacity: 1; stroke-width: 2; stroke: #000000" x="558.2" y="134.1" width="23" height="22" rx="0" ry="0"/>
    <rect style="fill: #ffffff; fill-opacity: 1; stroke-opacity: 1; stroke-width: 2; stroke: #000000" x="558.2" y="158.1" width="23" height="22" rx="0" ry="0"/>
    <rect style="fill: #ffffff; fill-opacity: 1; stroke-opacity: 1; stroke-width: 2; stroke: #000000" x="558.2" y="182.1" width="23" height="22" rx="0" ry="0"/>
    <rect style="fill: #ffffff; fill-opacity: 1; stroke-opacity: 1; stroke-width: 2; stroke: #000000" x="558.2" y="206.1" width="23" height="22" rx="0" ry="0"/>
    <rect style="fill: #ffffff; fill-opacity: 1; stroke-opacity: 1; stroke-width: 2; stroke: #000000" x="749.7" y="86.1" width="23" height="22" rx="0" ry="0"/>
    <rect style="fill: #ffffff; fill-opacity: 1; stroke-opacity: 1; stroke-width: 2; stroke: #000000" x="749.7" y="110.1" width="23" height="22" rx="0" ry="0"/>
    <rect style="fill: #ffffff; fill-opacity: 1; stroke-opacity: 1; stroke-width: 2; stroke: #000000" x="749.7" y="134.1" width="23" height="22" rx="0" ry="0"/>
    <rect style="fill: #ffffff; fill-opacity: 1; stroke-opacity: 1; stroke-width: 2; stroke: #000000" x="749.7" y="158.1" width="23" height="22" rx="0" ry="0"/>
    <rect style="fill: #ffffff; fill-opacity: 1; stroke-opacity: 1; stroke-width: 2; stroke: #000000" x="749.7" y="182.1" width="23" height="22" rx="0" ry="0"/>
    <rect style="fill: #ffffff; fill-opacity: 1; stroke-opacity: 1; stroke-width: 2; stroke: #000000" x="749.7" y="206.1" width="23" height="22" rx="0" ry="0"/>
    <rect style="fill: #ffffff; fill-opacity: 1; stroke-opacity: 1; stroke-width: 2; stroke: #000000" x="792.2" y="86.1" width="23" height="22" rx="0" ry="0"/>
    <rect style="fill: #ffffff; fill-opacity: 1; stroke-opacity: 1; stroke-width: 2; stroke: #000000" x="792.2" y="110.1" width="23" height="22" rx="0" ry="0"/>
    <rect style="fill: #ffffff; fill-opacity: 1; stroke-opacity: 1; stroke-width: 2; stroke: #000000" x="792.2" y="134.1" width="23" height="22" rx="0" ry="0"/>
    <rect style="fill: #ffffff; fill-opacity: 1; stroke-opacity: 1; stroke-width: 2; stroke: #000000" x="792.2" y="158.1" width="23" height="22" rx="0" ry="0"/>
    <rect style="fill: #ffffff; fill-opacity: 1; stroke-opacity: 1; stroke-width: 2; stroke: #000000" x="792.2" y="182.1" width="23" height="22" rx="0" ry="0"/>
    <rect style="fill: #ffffff; fill-opacity: 1; stroke-opacity: 1; stroke-width: 2; stroke: #000000" x="792.2" y="206.1" width="23" height="22" rx="0" ry="0"/>
    <rect style="fill: #ffffff; fill-opacity: 1; stroke-opacity: 1; stroke-width: 2; stroke: #000000" x="709.2" y="86.1" width="23" height="22" rx="0" ry="0"/>
    <rect style="fill: #ffffff; fill-opacity: 1; stroke-opacity: 1; stroke-width: 2; stroke: #000000" x="709.2" y="110.1" width="23" height="22" rx="0" ry="0"/>
    <rect style="fill: #ffffff; fill-opacity: 1; stroke-opacity: 1; stroke-width: 2; stroke: #000000" x="709.2" y="134.1" width="23" height="22" rx="0" ry="0"/>
    <rect style="fill: #ffffff; fill-opacity: 1; stroke-opacity: 1; stroke-width: 2; stroke: #000000" x="709.2" y="158.1" width="23" height="22" rx="0" ry="0"/>
    <rect style="fill: #ffffff; fill-opacity: 1; stroke-opacity: 1; stroke-width: 2; stroke: #000000" x="709.2" y="182.1" width="23" height="22" rx="0" ry="0"/>
    <rect style="fill: #ffffff; fill-opacity: 1; stroke-opacity: 1; stroke-width: 2; stroke: #000000" x="709.2" y="206.1" width="23" height="22" rx="0" ry="0"/>
    <rect style="fill: #ffffff; fill-opacity: 1; stroke-opacity: 1; stroke-width: 2; stroke: #000000" x="825.2" y="86.1" width="23" height="22" rx="0" ry="0"/>
    <text font-size="16.922" style="fill: #000000; fill-opacity: 1; stroke: none;text-anchor:start;font-family:sans-serif;font-style:normal;font-weight:normal" x="579" y="245">
      <tspan x="579" y="245">3*6=18</tspan>
    </text>
    <text font-size="16.922" style="fill: #000000; fill-opacity: 1; stroke: none;text-anchor:start;font-family:sans-serif;font-style:normal;font-weight:normal" x="714.2" y="244.8">
      <tspan x="714.2" y="244.8">3*6 + 1=19</tspan>
    </text>
    <text font-size="12.8" style="fill: #000000; fill-opacity: 1; stroke: none;text-anchor:start;font-family:sans-serif;font-style:normal;font-weight:normal" x="749.7" y="228.1">
      <tspan x="749.7" y="228.1"></tspan>
    </text>
  </g>
</svg>
